<svg width="72" height="72" viewBox="0 0 72 72" fill="none" xmlns="http://www.w3.org/2000/svg">
<path d="M20.057 45H51.9428M19.5428 39H52.457M21.268 21H50.7318C52.4897 21 53.8709 22.5047 53.7208 24.2562L50.6351 60.2562C50.5021 61.8081 49.2036 63 47.646 63H24.3538C22.7962 63 21.4977 61.8081 21.3647 60.2562L18.279 24.2562C18.1289 22.5047 19.5101 21 21.268 21Z" stroke="#828282" stroke-width="2" stroke-linecap="round" stroke-linejoin="round"/>
<path d="M57.4351 16.5116L54.0066 10.5116C53.4724 9.57686 52.4784 9 51.4018 9L20.598 9C19.5215 9 18.5274 9.57686 17.9933 10.5116L14.5647 16.5116C13.4219 18.5116 14.866 21 17.1695 21L54.8304 21C57.1339 21 58.578 18.5116 57.4351 16.5116Z" stroke="#828282" stroke-width="2" stroke-linecap="round" stroke-linejoin="round"/>
</svg>
