<svg width="24" height="24" viewBox="0 0 24 24" fill="none" xmlns="http://www.w3.org/2000/svg">
<path fill-rule="evenodd" clip-rule="evenodd" d="M4.79168 6.92857C4.79168 6.12485 5.45957 5.5 6.25 5.5H17.7499C18.5403 5.5 19.2082 6.12485 19.2082 6.92857V15.6885C19.2082 15.8315 19.2856 15.9716 19.4248 16.0525L20.7843 16.8429C22.0927 17.6036 21.4838 19.5 20.0399 19.5H3.95991C2.51603 19.5 1.90713 17.6036 3.21556 16.8429L4.81276 15.9144L5.06406 16.3466L4.81276 15.9144C5.03867 15.783 5.29591 15.7143 5.55712 15.7143H15.8332C16.1094 15.7143 16.3332 15.9381 16.3332 16.2143C16.3332 16.4904 16.1094 16.7143 15.8332 16.7143H5.55712C5.47094 16.7143 5.38733 16.737 5.31536 16.7789L3.71816 17.7074C3.3597 17.9158 3.45989 18.5 3.95991 18.5H20.0399C20.54 18.5 20.6402 17.9158 20.2817 17.7074L18.9222 16.917C18.484 16.6623 18.2082 16.1979 18.2082 15.6885V6.92857C18.2082 6.70662 18.018 6.5 17.7499 6.5H6.25C5.98189 6.5 5.79168 6.70662 5.79168 6.92857V13.4286C5.79168 13.7047 5.56782 13.9286 5.29168 13.9286C5.01553 13.9286 4.79168 13.7047 4.79168 13.4286V6.92857Z" fill="black"/>
</svg>
