<svg width="48" height="48" viewBox="0 0 48 48" fill="none" xmlns="http://www.w3.org/2000/svg">
<g filter="url(#filter0_b_6_29)">
<path d="M14.3699 39.21L14.9057 38.3656C14.6518 38.2046 14.3389 38.1663 14.0537 38.2613L14.3699 39.21ZM6 42L5.05132 41.6838C4.93154 42.0431 5.02506 42.4393 5.29289 42.7071C5.56073 42.9749 5.95689 43.0685 6.31623 42.9487L6 42ZM8.78998 33.6301L9.73866 33.9463C9.83374 33.6611 9.79544 33.3482 9.63437 33.0943L8.78998 33.6301ZM24 43C34.4934 43 43 34.4934 43 24H41C41 33.3888 33.3888 41 24 41V43ZM13.8342 40.0544C16.7744 41.9199 20.2626 43 24 43V41C20.6531 41 17.535 40.0339 14.9057 38.3656L13.8342 40.0544ZM14.0537 38.2613L5.68377 41.0513L6.31623 42.9487L14.6862 40.1587L14.0537 38.2613ZM6.94868 42.3162L9.73866 33.9463L7.8413 33.3138L5.05132 41.6838L6.94868 42.3162ZM5 24C5 27.7374 6.08011 31.2256 7.94559 34.1658L9.63437 33.0943C7.96615 30.465 7 27.3469 7 24H5ZM24 5C13.5066 5 5 13.5066 5 24H7C7 14.6112 14.6112 7 24 7V5ZM43 24C43 13.5066 34.4934 5 24 5V7C33.3888 7 41 14.6112 41 24H43Z" fill="#828282"/>
</g>
<defs>
<filter id="filter0_b_6_29" x="-4" y="-4" width="56" height="56" filterUnits="userSpaceOnUse" color-interpolation-filters="sRGB">
<feFlood flood-opacity="0" result="BackgroundImageFix"/>
<feGaussianBlur in="BackgroundImage" stdDeviation="2"/>
<feComposite in2="SourceAlpha" operator="in" result="effect1_backgroundBlur_6_29"/>
<feBlend mode="normal" in="SourceGraphic" in2="effect1_backgroundBlur_6_29" result="shape"/>
</filter>
</defs>
</svg>
