<svg width="72" height="72" viewBox="0 0 72 72" fill="none" xmlns="http://www.w3.org/2000/svg">
<path d="M20.0571 45H51.9429M19.5429 39H52.4572M21.2681 21H50.7319C52.4898 21 53.871 22.5047 53.7209 24.2562L50.6352 60.2562C50.5022 61.8081 49.2037 63 47.6461 63H24.3539C22.7963 63 21.4978 61.8081 21.3648 60.2562L18.2791 24.2562C18.129 22.5047 19.5102 21 21.2681 21Z" stroke="#828282" stroke-width="2" stroke-linecap="round" stroke-linejoin="round"/>
<path d="M57.4352 16.5116L54.0066 10.5116C53.4725 9.57686 52.4785 9 51.4019 9L20.5981 9C19.5215 9 18.5275 9.57686 17.9934 10.5116L14.5648 16.5116C13.422 18.5116 14.8661 21 17.1695 21L54.8305 21C57.1339 21 58.578 18.5116 57.4352 16.5116Z" stroke="#828282" stroke-width="2" stroke-linecap="round" stroke-linejoin="round"/>
</svg>
