<svg width="73" height="71" viewBox="0 0 73 71" fill="none" xmlns="http://www.w3.org/2000/svg">
<path fill-rule="evenodd" clip-rule="evenodd" d="M36.0008 0.5C27.4545 0.504434 19.1884 3.53137 12.6806 9.03957C6.17282 14.5478 1.84771 22.178 0.478634 30.566C-0.890443 38.954 0.78578 47.5526 5.20761 54.8245C9.62944 62.0964 16.5085 67.5673 24.6148 70.2589C26.4032 70.5908 27.0768 69.4824 27.0768 68.54C27.0768 67.5975 27.041 64.865 27.0291 61.8776C17.0142 64.0411 14.898 57.6515 14.898 57.6515C13.2646 53.5023 10.9039 52.4117 10.9039 52.4117C7.63714 50.1949 11.1483 50.2363 11.1483 50.2363C14.7668 50.4912 16.6685 53.9291 16.6685 53.9291C19.8756 59.4 25.0917 57.8174 27.1424 56.8928C27.4643 54.5752 28.4002 52.9985 29.4315 52.1035C21.4315 51.2025 13.0261 48.1321 13.0261 34.4163C12.9765 30.8591 14.3041 27.4192 16.734 24.808C16.3644 23.9071 15.1304 20.2677 17.0857 15.3243C17.0857 15.3243 20.1081 14.3641 26.9874 18.9933C32.888 17.3889 39.1136 17.3889 45.0142 18.9933C51.8875 14.3641 54.9039 15.3243 54.9039 15.3243C56.8652 20.2558 55.6312 23.8952 55.2616 24.808C57.6992 27.4196 59.0296 30.8655 58.9754 34.4281C58.9754 48.1736 50.5522 51.2025 42.5403 52.0857C43.8279 53.2 44.9784 55.3754 44.9784 58.7184C44.9784 63.5077 44.9367 67.3604 44.9367 68.54C44.9367 69.4943 45.5865 70.6086 47.4106 70.2589C55.5178 67.567 62.3976 62.0951 66.8193 54.822C71.2411 47.5489 72.9165 38.9489 71.5458 30.5602C70.1752 22.1714 65.8479 14.5411 59.338 9.03382C52.828 3.52657 44.56 0.501624 36.0127 0.5H36.0008Z" fill="#828282"/>
<path d="M13.6333 51.896C13.5558 52.0738 13.2697 52.1272 13.0372 52.0027C12.8047 51.8782 12.6318 51.6471 12.7153 51.4633C12.7987 51.2796 13.0789 51.2322 13.3114 51.3566C13.5439 51.4811 13.7227 51.7182 13.6333 51.896Z" fill="#828282"/>
<path d="M15.0939 53.5142C14.9704 53.576 14.8292 53.5933 14.6943 53.563C14.5595 53.5327 14.4394 53.4568 14.3547 53.3482C14.1222 53.0992 14.0745 52.7555 14.2533 52.6014C14.4322 52.4472 14.7541 52.5184 14.9866 52.7673C15.2191 53.0163 15.2727 53.36 15.0939 53.5142Z" fill="#828282"/>
<path d="M16.5127 55.5709C16.2922 55.7251 15.9166 55.571 15.7079 55.2627C15.6503 55.2074 15.6044 55.1411 15.573 55.0678C15.5417 54.9945 15.5255 54.9156 15.5255 54.836C15.5255 54.7563 15.5417 54.6774 15.573 54.6041C15.6044 54.5308 15.6503 54.4645 15.7079 54.4092C15.9285 54.261 16.3041 54.4092 16.5127 54.7115C16.7214 55.0138 16.7273 55.4168 16.5127 55.5709Z" fill="#828282"/>
<path d="M18.4382 57.5625C18.2414 57.7818 17.842 57.7226 17.5142 57.4262C17.1863 57.1298 17.1088 56.7268 17.3055 56.5134C17.5022 56.3 17.9016 56.3593 18.2414 56.6497C18.5812 56.9402 18.6468 57.3491 18.4382 57.5625Z" fill="#828282"/>
<path d="M21.1385 58.7243C21.0491 59.0029 20.6437 59.1273 20.2384 59.0088C19.833 58.8903 19.5647 58.5583 19.6422 58.2738C19.7197 57.9893 20.1311 57.8589 20.5424 57.9893C20.9537 58.1197 21.216 58.4339 21.1385 58.7243Z" fill="#828282"/>
<path d="M24.0835 58.9258C24.0835 59.2162 23.7497 59.4652 23.3205 59.4711C22.8913 59.477 22.5396 59.2399 22.5396 58.9495C22.5396 58.6591 22.8734 58.4101 23.3026 58.4042C23.7318 58.3983 24.0835 58.6294 24.0835 58.9258Z" fill="#828282"/>
<path d="M26.8257 58.4694C26.8793 58.7598 26.5813 59.0621 26.1521 59.1333C25.7229 59.2044 25.3473 59.0325 25.2936 58.748C25.24 58.4635 25.55 58.1553 25.9673 58.0782C26.3846 58.0012 26.772 58.179 26.8257 58.4694Z" fill="#828282"/>
</svg>
