<svg width="48" height="48" fill="none" xmlns="http://www.w3.org/2000/svg"><path d="M3.319 33.305c-.357.357-.381.576-.342 3.146.029 1.958.047 2.187.201 2.573a3.265 3.265 0 0 0 1.798 1.802L5.4 41h37.2l.424-.174a3.265 3.265 0 0 0 1.798-1.802c.154-.386.172-.615.201-2.573.039-2.57.015-2.789-.342-3.146l-.265-.265h-3.588l-.355.535c-.399.603-1.155 1.177-1.661 1.263-.867.147-.389.2 1.808.201l2.34.001v3.348l-.205.244c-.113.134-.338.28-.5.325-.41.114-36.1.114-36.51 0a1.189 1.189 0 0 1-.5-.325l-.205-.244V35.04l2.34-.005c2.287-.006 2.482-.033 1.687-.233-.503-.127-1.218-.701-1.582-1.27l-.316-.492H3.584l-.265.265" fill="#828282" fill-rule="evenodd"/></svg>