<svg width="48" height="48" viewBox="0 0 48 48" fill="none" xmlns="http://www.w3.org/2000/svg">
<path d="M4 34V33C3.44772 33 3 33.4477 3 34H4ZM44 34H45C45 33.4477 44.5523 33 44 33V34ZM4 35H44V33H4V35ZM43 34V38H45V34H43ZM42 39H6V41H42V39ZM5 38V34H3V38H5ZM6 39C5.44772 39 5 38.5523 5 38H3C3 39.6569 4.34315 41 6 41V39ZM43 38C43 38.5523 42.5523 39 42 39V41C43.6569 41 45 39.6569 45 38H43Z" fill="#828282"/>
<path d="M38 10H10C8.89543 10 8 10.8954 8 12V32C8 33.1046 8.89543 34 10 34H38C39.1046 34 40 33.1046 40 32V12C40 10.8954 39.1046 10 38 10Z" stroke="#828282" stroke-width="2" stroke-linecap="round" stroke-linejoin="round"/>
</svg>
