<svg width="72" height="72" viewBox="0 0 72 72" fill="none" xmlns="http://www.w3.org/2000/svg">
<path d="M66.6703 0H5.31562C2.37656 0 0 2.32031 0 5.18906V66.7969C0 69.6656 2.37656 72 5.31562 72H66.6703C69.6094 72 72 69.6656 72 66.8109V5.18906C72 2.32031 69.6094 0 66.6703 0ZM21.3609 61.3547H10.6734V26.9859H21.3609V61.3547ZM16.0172 22.3031C12.5859 22.3031 9.81563 19.5328 9.81563 16.1156C9.81563 12.6984 12.5859 9.92812 16.0172 9.92812C19.4344 9.92812 22.2047 12.6984 22.2047 16.1156C22.2047 19.5187 19.4344 22.3031 16.0172 22.3031ZM61.3547 61.3547H50.6812V44.6484C50.6812 40.6688 50.6109 35.5359 45.1266 35.5359C39.5719 35.5359 38.7281 39.8812 38.7281 44.3672V61.3547H28.0688V26.9859H38.3062V31.6828H38.4469C39.8672 28.9828 43.3547 26.1281 48.5438 26.1281C59.3578 26.1281 61.3547 33.2438 61.3547 42.4969V61.3547Z" fill="#828282"/>
</svg>
