<svg width="72" height="72" viewBox="0 0 72 72" fill="none" xmlns="http://www.w3.org/2000/svg">
<path d="M40.6123 35.4831C40.6123 46.7953 31.5208 55.9655 20.3065 55.9655C9.09219 55.9655 0 46.7932 0 35.4831C0 24.173 9.0915 15 20.3065 15C31.5215 15 40.6123 24.1709 40.6123 35.4831Z" fill="#828282"/>
<path d="M62.8884 35.4832C62.8884 46.1312 58.3427 54.7665 52.7352 54.7665C47.1277 54.7665 42.5819 46.1312 42.5819 35.4832C42.5819 24.8353 47.127 16.2 52.7345 16.2C58.342 16.2 62.8877 24.8325 62.8877 35.4832" fill="#828282"/>
<path d="M71.9999 35.483C71.9999 45.021 70.4014 52.7578 68.429 52.7578C66.4566 52.7578 64.8588 45.023 64.8588 35.483C64.8588 25.943 66.4573 18.2083 68.429 18.2083C70.4007 18.2083 71.9999 25.9423 71.9999 35.483Z" fill="#828282"/>
</svg>
